<svg version="1.1" id="Layer_1" xmlns="http://www.w3.org/2000/svg" xmlns:xlink="http://www.w3.org/1999/xlink" x="0px" y="0px"
	 width="100%" viewBox="0 0 550 453" enable-background="new 0 0 550 453" xml:space="preserve">
<path fill="#000000" opacity="1.000000" stroke="none" 
	d="
M336.000000,454.000000 
	C224.000031,454.000000 112.500053,454.000000 1.000060,454.000000 
	C1.000040,303.000061 1.000040,152.000122 1.000020,1.000141 
	C184.333237,1.000094 367.666473,1.000094 550.999756,1.000047 
	C550.999878,151.999863 550.999878,302.999725 550.999939,453.999786 
	C479.500000,454.000000 408.000000,454.000000 336.000000,454.000000 
M70.026543,48.932507 
	C70.017647,61.561527 69.991203,74.190567 70.003120,86.819572 
	C70.039635,125.535507 70.090858,164.251419 69.897171,203.510391 
	C69.560623,203.990387 69.224075,204.470398 68.281013,205.222794 
	C62.333084,210.272949 57.780823,216.467438 56.206993,224.061081 
	C52.506790,241.914322 55.939445,258.905731 65.075844,274.415558 
	C74.476814,290.374573 75.544815,300.981232 63.705780,315.765717 
	C59.094666,321.524048 53.626881,326.626648 49.291656,332.569489 
	C39.645069,345.793213 39.465939,360.800903 42.566631,376.062897 
	C45.170326,388.878601 50.828831,400.543152 56.732666,412.375946 
	C56.184238,412.943146 55.635811,413.510345 55.709530,414.611969 
	C57.193909,414.741241 58.678276,414.983582 60.162666,414.983734 
	C209.993011,415.000946 359.823334,415.002991 509.653687,414.961639 
	C511.405273,414.961151 513.156738,414.384949 514.674927,413.616669 
	C514.411804,413.398865 514.148621,413.181091 514.208496,412.308929 
	C514.822021,410.968262 515.544312,409.665985 516.032593,408.281158 
	C521.805786,391.905579 523.043457,374.697266 523.751587,357.663483 
	C524.700623,334.831055 524.377380,311.943115 521.151611,289.161835 
	C518.636292,271.398315 515.317688,253.923859 509.128296,237.031784 
	C502.147186,217.979004 492.325989,201.135513 475.132812,189.255600 
	C472.036438,187.116104 469.763855,182.969620 468.451385,179.273727 
	C466.887329,174.869308 467.064240,169.880020 465.947662,165.274857 
	C464.567444,159.582443 463.405090,153.629120 460.775024,148.491684 
	C455.496826,138.181259 445.300385,135.377838 434.874268,135.173813 
	C418.617950,134.855667 402.328064,136.206848 386.073425,135.861603 
	C366.458344,135.444977 356.162292,130.391403 351.845947,108.938019 
	C348.924957,94.420006 340.300934,82.783493 328.421661,74.210320 
	C310.257568,61.101448 289.037842,56.301132 267.183380,55.200909 
	C248.755325,54.273186 230.170227,53.891888 211.328384,57.732086 
	C211.167603,54.476284 211.006821,51.220478 210.505280,47.177856 
	C210.009933,47.121941 209.514618,47.017178 209.019257,47.017059 
	C163.865387,47.006355 118.711502,46.996342 73.557678,47.042377 
	C72.420479,47.043533 71.283913,47.668385 70.026543,48.932507 
z"/>
<path fill="#355389" opacity="1.000000" stroke="none" 
	d="
M211.941284,58.207741 
	C230.170227,53.891888 248.755325,54.273186 267.183380,55.200909 
	C289.037842,56.301132 310.257568,61.101448 328.421661,74.210320 
	C340.300934,82.783493 348.924957,94.420006 351.845947,108.938019 
	C356.162292,130.391403 366.458344,135.444977 386.073425,135.861603 
	C402.328064,136.206848 418.617950,134.855667 434.874268,135.173813 
	C445.300385,135.377838 455.496826,138.181259 460.775024,148.491684 
	C463.405090,153.629120 464.567444,159.582443 465.947662,165.274857 
	C467.064240,169.880020 466.887329,174.869308 468.451385,179.273727 
	C469.763855,182.969620 472.036438,187.116104 475.132812,189.255600 
	C492.325989,201.135513 502.147186,217.979004 509.128296,237.031784 
	C515.317688,253.923859 518.636292,271.398315 521.151611,289.161835 
	C524.377380,311.943115 524.700623,334.831055 523.751587,357.663483 
	C523.043457,374.697266 521.805786,391.905579 516.032593,408.281158 
	C515.544312,409.665985 514.822021,410.968262 513.587158,412.610657 
	C504.362396,412.873230 495.759003,412.834045 487.108765,412.392883 
	C488.765808,403.736938 490.405762,395.468933 492.210144,387.236938 
	C492.799133,384.549896 492.265839,383.075928 489.279602,382.903412 
	C488.169708,382.839264 487.085266,382.335114 486.250275,381.795349 
	C494.403931,378.587402 501.826233,375.377136 504.656342,366.106537 
	C507.114716,358.053558 508.591736,350.023071 508.907684,340.200531 
	C506.304291,342.107697 504.656128,342.791504 503.825897,344.025665 
	C501.698639,347.187775 500.004852,350.637268 498.010834,353.894135 
	C494.361725,359.854279 491.988312,366.390991 484.987244,370.306305 
	C481.761505,372.110260 481.048065,378.406525 478.866211,382.725128 
	C477.702545,382.562317 476.868073,382.340210 476.049438,381.719910 
	C478.304169,372.489197 479.743378,363.404480 486.086487,356.107544 
	C487.719086,354.229462 488.428345,351.319275 488.968658,348.758087 
	C492.683350,331.149231 494.411804,313.536896 487.507385,296.238159 
	C485.987274,292.429535 483.897522,288.848297 482.070038,285.162354 
	C481.605225,285.344543 481.140381,285.526733 480.675568,285.708923 
	C479.625763,290.523193 478.930328,295.449860 477.446442,300.126373 
	C474.971832,307.925171 474.465912,315.727661 475.617981,323.784058 
	C476.604919,330.685577 477.349548,337.628845 477.968353,344.574371 
	C479.105835,357.341492 476.849976,369.769073 473.678589,382.114197 
	C473.492676,382.126282 473.120605,382.106628 473.090515,381.638214 
	C473.517090,376.226227 474.038208,371.287598 474.416229,366.338013 
	C475.068604,357.795624 477.109253,349.232239 474.082886,340.727905 
	C471.033997,332.160370 468.026154,323.578186 465.158386,314.644897 
	C465.598297,310.520874 466.067139,306.757019 466.121002,302.987244 
	C466.217468,296.234222 466.059387,289.477661 466.017761,282.722504 
	C466.002289,280.214539 466.015228,277.706329 466.015228,274.013824 
	C461.980011,281.674805 458.268341,287.772675 455.489899,294.269653 
	C452.833801,300.480499 450.068726,306.980316 449.297668,313.580444 
	C448.228333,322.733368 448.911530,332.099365 449.001923,341.372620 
	C449.020752,343.303955 449.357178,345.404968 450.178223,347.126862 
	C454.503021,356.196503 459.030060,365.169678 463.094666,374.087372 
	C454.783997,370.382446 449.055023,365.578217 449.724396,355.532043 
	C449.978424,351.718903 447.749298,347.740356 446.523010,343.378540 
	C444.227814,348.932037 442.519165,353.357880 440.586426,357.683655 
	C436.222504,367.450928 439.936096,375.307648 450.204071,378.070435 
	C454.510742,379.229248 458.738708,380.680786 462.674255,382.216278 
	C454.474762,383.702087 454.471039,383.702911 456.264069,391.948883 
	C457.770996,398.878967 459.287903,405.806885 460.345825,412.769409 
	C442.663879,412.778748 425.436493,412.754364 408.154388,412.360413 
	C407.811646,408.232758 405.577393,406.911896 402.046875,406.944763 
	C395.567108,407.005096 389.086273,406.944580 382.539459,406.538513 
	C377.617188,402.179016 378.841736,396.693207 378.844513,391.531708 
	C378.854095,373.707916 378.892029,355.884155 379.392181,338.032898 
	C388.529358,337.993469 397.194458,337.902679 405.857178,338.008331 
	C409.329346,338.050659 411.621887,336.787994 412.634888,333.408386 
	C420.617371,306.776764 428.697388,280.173523 436.443481,253.473328 
	C437.239746,250.728607 436.733673,247.116669 435.601776,244.424332 
	C434.146759,240.963531 430.498962,240.584641 426.962524,241.035538 
	C422.764801,241.570740 421.199066,244.702393 420.150238,248.136734 
	C415.676544,262.785614 411.298889,277.463867 406.435150,292.045959 
	C401.904297,292.009521 397.824524,292.058502 393.842255,291.952545 
	C393.939789,291.797607 394.168488,291.511627 394.173828,291.053925 
	C392.176605,278.797760 389.562775,267.034515 392.516266,254.990845 
	C397.492462,252.838608 402.659271,251.405502 406.549530,248.348114 
	C415.169006,241.573959 421.225464,225.054794 409.632111,212.974792 
	C408.191895,211.474136 407.318329,209.027359 407.022888,206.902115 
	C405.926147,199.012115 402.470184,192.895615 395.519196,188.638336 
	C393.510498,187.408051 391.670898,185.075119 390.864868,182.845963 
	C386.579651,170.994797 372.303772,161.991684 361.661560,166.372650 
	C353.209991,169.851852 346.995239,176.947159 344.051910,186.091980 
	C343.405853,188.099121 343.424591,190.322952 343.162201,192.450089 
	C342.868713,194.829315 343.032501,197.364349 342.250275,199.566208 
	C339.268433,207.959152 341.932251,216.837097 349.234192,222.117828 
	C350.948120,223.357330 352.454163,224.884323 353.981628,226.599121 
	C351.335907,230.172028 348.565704,233.295502 346.312653,236.755722 
	C345.627594,237.807770 346.369110,239.788727 346.242432,241.664795 
	C343.055542,247.176910 339.127258,250.767059 332.855255,251.939560 
	C326.734222,253.083832 320.798584,255.219925 314.581177,256.647583 
	C310.711884,247.486725 306.911774,238.649826 303.432983,229.688187 
	C301.847015,225.602692 299.599884,223.524765 294.940308,223.921463 
	C290.663971,224.285538 286.324249,223.905304 282.009399,223.406433 
	C282.277069,216.778152 282.348846,210.535233 277.315887,205.949509 
	C273.073944,202.084488 268.456940,198.631088 263.831787,194.711578 
	C260.776062,191.947922 257.894531,189.468201 254.840118,186.706940 
	C252.800323,184.938141 250.933441,183.450897 248.888702,181.691940 
	C247.138184,179.950974 245.565491,178.481720 243.847534,176.770844 
	C243.139023,176.041702 242.575821,175.554184 242.118637,174.766998 
	C241.447937,173.645920 240.671188,172.824493 239.484314,171.981186 
	C233.708267,170.440323 228.445969,170.455902 223.072083,172.783081 
	C220.145966,170.762512 217.585052,168.527924 213.921600,170.774765 
	C213.070847,170.258804 212.474396,169.958466 211.884583,169.211029 
	C211.907898,131.911880 211.924591,95.059807 211.941284,58.207741 
M274.997925,148.500809 
	C274.998810,158.333893 275.106781,168.168747 274.944061,177.999130 
	C274.884766,181.582031 275.981934,183.067810 279.772980,183.036911 
	C296.938080,182.896988 314.105194,182.926041 331.270905,183.019028 
	C334.573517,183.036896 336.123840,182.080582 336.092682,178.483200 
	C335.965698,163.818039 335.991089,149.150833 336.078217,134.485092 
	C336.096802,131.352081 335.054077,129.959213 331.754913,129.975677 
	C314.255859,130.063110 296.755859,130.065109 279.256805,129.974213 
	C275.929657,129.956940 274.867065,131.387436 274.968292,134.503113 
	C275.108917,138.831696 274.999969,143.168381 274.997925,148.500809 
M239.504303,145.007217 
	C245.988266,145.003311 252.472824,144.947830 258.955933,145.020294 
	C261.634003,145.050217 262.947632,144.038910 262.939789,141.241440 
	C262.897827,126.278641 262.903168,111.315636 262.929993,96.352768 
	C262.935150,93.472282 261.677979,92.060005 258.738251,92.068207 
	C248.430573,92.096939 238.122620,92.101151 227.815048,92.053505 
	C225.092056,92.040916 223.927017,93.218285 223.935532,95.956390 
	C223.982101,110.919235 223.991013,125.882454 223.925064,140.845154 
	C223.912109,143.781754 225.018570,145.126236 228.033386,145.024246 
	C231.520630,144.906281 235.015137,145.003479 239.504303,145.007217 
M444.502991,341.478912 
	C444.502991,341.478912 444.516815,341.521515 444.502991,341.478912 
z"/>
<path fill="#355389" opacity="1.000000" stroke="none" 
	d="
M57.110733,411.912659 
	C50.828831,400.543152 45.170326,388.878601 42.566631,376.062897 
	C39.465939,360.800903 39.645069,345.793213 49.291656,332.569489 
	C53.626881,326.626648 59.094666,321.524048 63.705780,315.765717 
	C75.544815,300.981232 74.476814,290.374573 65.075844,274.415558 
	C55.939445,258.905731 52.506790,241.914322 56.206993,224.061081 
	C57.780823,216.467438 62.333084,210.272949 68.848007,205.414062 
	C69.607712,215.406143 70.013626,225.209457 69.897362,235.006577 
	C69.844398,239.469177 71.046432,241.097488 75.778374,241.075211 
	C114.433769,240.893295 153.090317,240.954666 191.894623,241.299896 
	C194.210449,247.974564 196.378159,254.291382 198.147064,260.700531 
	C193.736603,261.491547 191.106430,263.492035 190.608978,267.957581 
	C188.519043,268.045563 186.682480,267.654053 185.255035,268.247162 
	C183.812744,268.846405 181.922241,270.340179 181.803116,271.591980 
	C181.685577,272.826996 183.348145,274.486603 184.600891,275.502075 
	C185.364319,276.120880 186.829285,275.874207 187.971832,276.483887 
	C187.963104,304.566467 187.985367,332.181519 187.951721,359.796478 
	C187.930252,377.427368 187.826050,395.058167 187.312668,412.732849 
	C183.503799,412.692200 180.141190,412.607758 176.788162,412.088379 
	C176.823334,402.165161 176.918610,392.676270 176.831223,383.189026 
	C176.805695,380.418213 176.259842,377.652222 176.050461,374.673340 
	C176.068192,373.742188 175.987961,373.021667 176.124863,371.921417 
	C176.519516,363.767273 176.830444,355.992706 176.824112,348.218445 
	C176.820358,343.617950 176.315277,339.017822 176.039551,334.021515 
	C176.022934,333.097931 176.002396,332.570374 176.200241,331.689972 
	C176.550446,322.027008 176.682251,312.716888 177.210892,303.283081 
	C178.366333,301.280487 179.627838,299.405640 179.643051,297.520752 
	C179.649384,296.735901 177.053864,295.393494 175.547012,295.241638 
	C172.121078,294.896423 168.636673,295.131378 165.170486,294.651917 
	C165.155563,290.028198 164.985397,285.875336 165.184860,281.740265 
	C165.362091,278.066132 163.902145,276.757202 160.253769,276.827271 
	C150.143570,277.021362 140.028442,276.957825 129.510071,276.996063 
	C128.074265,278.298065 126.260086,279.540314 126.155350,280.912994 
	C125.796402,285.617310 126.037056,290.367401 125.691338,295.106964 
	C124.857773,295.082184 124.381958,295.050507 124.094147,294.669800 
	C125.690773,290.720490 125.968430,287.601624 121.246811,286.432922 
	C123.317596,283.834442 123.940956,280.870758 120.474869,280.432129 
	C116.045563,279.871643 111.421471,280.850433 106.422089,281.107697 
	C98.710342,281.049561 91.457832,281.049561 84.173355,281.049561 
	C84.008568,282.404816 83.850471,283.704956 83.528107,285.208160 
	C84.166283,286.260925 84.968735,287.110626 85.836685,288.395538 
	C85.932564,290.865814 85.962929,292.900879 85.549919,294.999634 
	C83.649475,295.083649 82.129097,294.849304 80.752037,295.191559 
	C79.184135,295.581299 76.574692,296.360016 76.485313,297.191833 
	C76.281990,299.084015 77.343590,301.112152 77.925461,303.547302 
	C77.987762,319.973663 78.058105,335.937836 78.033005,351.901825 
	C78.001114,372.186768 77.891846,392.471558 77.360214,412.783691 
	C70.306572,412.511566 63.708652,412.212128 57.110733,411.912659 
z"/>
<path fill="#446BB1" opacity="1.000000" stroke="none" 
	d="
M191.746506,240.942062 
	C153.090317,240.954666 114.433769,240.893295 75.778374,241.075211 
	C71.046432,241.097488 69.844398,239.469177 69.897362,235.006577 
	C70.013626,225.209457 69.607712,215.406143 69.151260,205.277863 
	C69.224075,204.470398 69.560623,203.990387 70.226097,202.886139 
	C70.705887,200.118668 70.986504,197.975586 70.988579,195.832230 
	C71.036217,146.594559 71.053528,97.356873 71.537323,48.086784 
	C118.280792,48.024475 164.563416,47.994576 210.846039,47.964676 
	C211.006821,51.220478 211.167603,54.476284 211.634827,57.969913 
	C211.924591,95.059807 211.907898,131.911880 211.489716,169.270935 
	C208.424789,170.483231 205.761368,171.188522 203.089905,171.432281 
	C203.081863,155.386444 203.081863,139.802124 203.081863,124.273117 
	C201.623154,124.005562 200.980545,123.784195 200.338089,123.784637 
	C160.534317,123.812393 120.730553,123.858269 80.527847,123.912308 
	C79.479813,125.603554 78.270233,127.283035 78.264496,128.966644 
	C78.153038,161.631729 78.234390,194.297485 78.113564,226.962494 
	C78.099190,230.850220 79.254669,232.152466 83.235870,232.136017 
	C118.400551,231.990555 153.566010,232.030151 188.864090,232.364151 
	C189.913467,235.456192 190.829987,238.199127 191.746506,240.942062 
M203.078690,78.500038 
	C203.078415,72.667152 202.844009,66.821648 203.157227,61.005650 
	C203.379242,56.883472 202.058899,55.597683 197.860489,55.614048 
	C160.197052,55.760818 122.532585,55.759884 84.869087,55.620636 
	C80.331680,55.603859 78.802582,56.963257 78.869186,61.608849 
	C79.112839,78.604156 79.098412,95.606781 78.878670,112.602745 
	C78.818558,117.252167 80.041191,119.004143 85.011131,118.980064 
	C122.674255,118.797607 160.338669,118.884109 198.002670,118.866913 
	C199.588531,118.866188 201.174301,118.670113 203.078766,118.543930 
	C203.078766,105.138565 203.078766,92.319298 203.078690,78.500038 
z"/>
<path fill="#20304D" opacity="1.000000" stroke="none" 
	d="
M514.908264,414.077454 
	C513.156738,414.384949 511.405273,414.961151 509.653687,414.961639 
	C359.823334,415.002991 209.993011,415.000946 60.162666,414.983734 
	C58.678276,414.983582 57.193909,414.741241 55.858543,414.322205 
	C121.397713,414.022034 186.787888,414.020508 252.178009,413.963928 
	C254.445297,413.961975 256.712097,413.410645 259.181091,413.033112 
	C259.383026,412.950867 259.818207,412.922516 260.123077,412.950867 
	C260.631409,412.995880 260.834839,413.012543 261.370331,413.272278 
	C262.675873,413.674744 263.649292,413.972565 264.622955,413.973511 
	C292.011047,414.000061 319.399200,414.011963 346.787201,413.954071 
	C348.198761,413.951111 349.608917,413.308502 351.160461,412.864746 
	C351.301239,412.765808 351.643158,412.804871 351.942322,412.845032 
	C352.441498,412.907379 352.641510,412.929535 353.186707,413.201691 
	C355.838470,413.634888 358.144836,413.975555 360.451599,413.978058 
	C411.937134,414.033661 463.422699,414.052032 514.908264,414.077454 
z"/>
<path fill="#001333" opacity="1.000000" stroke="none" 
	d="
M258.979126,413.115387 
	C256.712097,413.410645 254.445297,413.961975 252.178009,413.963928 
	C186.787888,414.020508 121.397713,414.022034 55.547466,414.054993 
	C55.635811,413.510345 56.184238,412.943146 56.921700,412.144287 
	C63.708652,412.212128 70.306572,412.511566 77.842461,412.842285 
	C87.270882,412.842163 95.761337,412.810791 104.703270,412.786438 
	C129.029358,412.703430 152.903976,412.613373 176.778595,412.523315 
	C180.141190,412.607758 183.503799,412.692200 187.756989,412.801208 
	C189.831390,412.787811 191.015228,412.749817 192.648712,412.760223 
	C205.829590,412.789124 218.560776,412.769653 231.734741,412.838745 
	C241.111374,412.990021 250.045258,413.052704 258.979126,413.115387 
z"/>
<path fill="#001333" opacity="1.000000" stroke="none" 
	d="
M514.791626,413.847046 
	C463.422699,414.052032 411.937134,414.033661 360.451599,413.978058 
	C358.144836,413.975555 355.838470,413.634888 353.672791,413.202271 
	C371.945496,412.878540 390.077301,412.804291 408.209137,412.729980 
	C425.436493,412.754364 442.663879,412.778748 460.829346,412.829834 
	C470.230194,412.836029 478.692932,412.815430 487.155640,412.794861 
	C495.759003,412.834045 504.362396,412.873230 513.425659,412.937866 
	C514.148621,413.181091 514.411804,413.398865 514.791626,413.847046 
z"/>
<path fill="#597DBD" opacity="1.000000" stroke="none" 
	d="
M71.076485,48.119186 
	C71.053528,97.356873 71.036217,146.594559 70.988579,195.832230 
	C70.986504,197.975586 70.705887,200.118668 70.345688,202.614624 
	C70.090858,164.251419 70.039635,125.535507 70.003120,86.819572 
	C69.991203,74.190567 70.017647,61.561527 70.319687,48.492218 
	C70.612823,48.051926 71.076485,48.119186 71.076485,48.119186 
z"/>
<path fill="#7492C8" opacity="1.000000" stroke="none" 
	d="
M71.537323,48.086784 
	C71.076485,48.119186 70.612823,48.051926 70.379944,48.027138 
	C71.283913,47.668385 72.420479,47.043533 73.557678,47.042377 
	C118.711502,46.996342 163.865387,47.006355 209.019257,47.017059 
	C209.514618,47.017178 210.009933,47.121941 210.675659,47.571266 
	C164.563416,47.994576 118.280792,48.024475 71.537323,48.086784 
z"/>
<path fill="#16395D" opacity="1.000000" stroke="none" 
	d="
M354.055847,226.279083 
	C352.454163,224.884323 350.948120,223.357330 349.234192,222.117828 
	C341.932251,216.837097 339.268433,207.959152 342.250275,199.566208 
	C343.032501,197.364349 342.868713,194.829315 343.162201,192.450089 
	C343.424591,190.322952 343.405853,188.099121 344.051910,186.091980 
	C346.995239,176.947159 353.209991,169.851852 361.661560,166.372650 
	C372.303772,161.991684 386.579651,170.994797 390.864868,182.845963 
	C391.670898,185.075119 393.510498,187.408051 395.519196,188.638336 
	C402.470184,192.895615 405.926147,199.012115 407.022888,206.902115 
	C407.318329,209.027359 408.191895,211.474136 409.632111,212.974792 
	C421.225464,225.054794 415.169006,241.573959 406.549530,248.348114 
	C402.659271,251.405502 397.492462,252.838608 392.489136,254.564117 
	C392.646881,247.399490 393.220337,240.679428 393.868256,233.546982 
	C396.704498,220.768982 394.805725,216.858841 384.744507,214.601013 
	C382.921967,214.307083 381.404846,214.233749 379.743225,213.814041 
	C379.174927,212.210495 378.711182,210.965149 378.333923,209.694168 
	C376.504120,203.529526 373.873169,197.392502 380.122955,191.828125 
	C380.894409,191.141312 379.497284,186.285751 379.105499,186.285797 
	C373.371277,186.286591 371.284607,181.728729 368.487823,178.194595 
	C365.319366,174.190735 360.534790,174.030212 357.547302,178.071823 
	C353.043915,184.164200 356.113800,200.107330 362.580566,203.799561 
	C364.851959,205.096405 368.172913,205.097366 367.271973,209.330811 
	C366.719360,211.927277 367.051727,214.712082 366.614197,217.516754 
	C363.467285,219.296310 360.692902,220.971436 357.634583,222.823975 
	C356.252380,224.093948 355.154114,225.186508 354.055847,226.279083 
z"/>
<path fill="#466EB5" opacity="1.000000" stroke="none" 
	d="
M406.886200,292.131409 
	C411.298889,277.463867 415.676544,262.785614 420.150238,248.136734 
	C421.199066,244.702393 422.764801,241.570740 426.962524,241.035538 
	C430.498962,240.584641 434.146759,240.963531 435.601776,244.424332 
	C436.733673,247.116669 437.239746,250.728607 436.443481,253.473328 
	C428.697388,280.173523 420.617371,306.776764 412.634888,333.408386 
	C411.621887,336.787994 409.329346,338.050659 405.857178,338.008331 
	C397.194458,337.902679 388.529358,337.993469 378.968567,338.007812 
	C376.091156,338.038239 374.110443,338.066315 371.683960,338.053650 
	C362.215515,337.633850 353.192810,337.254822 344.135345,336.417877 
	C344.085632,330.933319 344.070648,325.906677 344.162415,320.884918 
	C344.269104,320.889832 344.482117,320.905914 344.987885,320.965210 
	C359.656403,320.975464 373.819122,320.926422 388.430786,320.907227 
	C390.700226,320.944366 392.588531,321.255463 394.321228,320.869080 
	C395.893921,320.518372 398.249084,319.719421 398.620789,318.582458 
	C401.030243,311.211823 402.991577,303.694702 405.350464,296.015106 
	C406.029510,294.580231 406.457855,293.355835 406.886200,292.131409 
z"/>
<path fill="#AF5643" opacity="1.000000" stroke="none" 
	d="
M282.012451,223.853012 
	C286.324249,223.905304 290.663971,224.285538 294.940308,223.921463 
	C299.599884,223.524765 301.847015,225.602692 303.432983,229.688187 
	C306.911774,238.649826 310.711884,247.486725 314.644104,256.931030 
	C314.969910,257.670593 315.032440,257.853699 315.166199,258.389343 
	C316.298340,264.172150 319.688995,265.554779 324.956665,265.298767 
	C332.587189,264.928009 340.256805,265.361053 347.968445,265.755005 
	C347.994781,266.678040 347.962433,267.297333 347.471741,267.998840 
	C323.675049,268.038361 300.336700,267.995605 277.000946,267.523682 
	C277.281097,261.261841 277.558655,255.429092 278.069519,249.352173 
	C281.024078,246.908188 280.418091,244.877289 277.992004,242.475220 
	C278.330231,236.075027 278.666077,230.138565 279.377319,224.149048 
	C280.505981,224.014999 281.259216,223.934006 282.012451,223.853012 
z"/>
<path fill="#B8C4ED" opacity="1.000000" stroke="none" 
	d="
M393.793793,233.959366 
	C393.220337,240.679428 392.646881,247.399490 392.100586,254.546295 
	C389.562775,267.034515 392.176605,278.797760 393.699158,291.015198 
	C380.171661,290.232117 367.124237,289.030090 354.049988,287.373413 
	C353.711792,279.761353 353.400391,272.603943 353.510773,265.376892 
	C359.093536,265.970154 362.637909,263.516144 365.737061,259.647217 
	C368.720093,255.923218 372.110199,252.525330 375.603210,249.146118 
	C380.917816,250.563293 382.044708,245.820145 384.623657,243.457321 
	C387.862396,240.490021 390.752960,237.142685 393.793793,233.959366 
z"/>
<path fill="#456DB4" opacity="1.000000" stroke="none" 
	d="
M274.997925,148.001190 
	C274.999969,143.168381 275.108917,138.831696 274.968292,134.503113 
	C274.867065,131.387436 275.929657,129.956940 279.256805,129.974213 
	C296.755859,130.065109 314.255859,130.063110 331.754913,129.975677 
	C335.054077,129.959213 336.096802,131.352081 336.078217,134.485092 
	C335.991089,149.150833 335.965698,163.818039 336.092682,178.483200 
	C336.123840,182.080582 334.573517,183.036896 331.270905,183.019028 
	C314.105194,182.926041 296.938080,182.896988 279.772980,183.036911 
	C275.981934,183.067810 274.884766,181.582031 274.944061,177.999130 
	C275.106781,168.168747 274.998810,158.333893 274.997925,148.001190 
M325.306885,176.074966 
	C328.506012,176.403030 330.234924,175.472961 330.167297,171.742050 
	C329.983368,161.586899 330.015289,151.424988 330.155670,141.268463 
	C330.200867,137.998230 328.983673,136.923843 325.773560,136.952286 
	C312.285492,137.071808 298.795013,137.078751 285.307129,136.948227 
	C282.020966,136.916428 280.960663,138.113281 281.005615,141.320190 
	C281.145721,151.310165 281.192291,161.306213 280.983856,171.293839 
	C280.905792,175.035690 282.185883,176.195343 285.876709,176.143997 
	C298.697235,175.965591 311.521759,176.076218 325.306885,176.074966 
z"/>
<path fill="#4E7EC6" opacity="1.000000" stroke="none" 
	d="
M473.864532,382.102112 
	C476.849976,369.769073 479.105835,357.341492 477.968353,344.574371 
	C477.349548,337.628845 476.604919,330.685577 475.617981,323.784058 
	C474.465912,315.727661 474.971832,307.925171 477.446442,300.126373 
	C478.930328,295.449860 479.625763,290.523193 480.675568,285.708923 
	C481.140381,285.526733 481.605225,285.344543 482.070038,285.162354 
	C483.897522,288.848297 485.987274,292.429535 487.507385,296.238159 
	C494.411804,313.536896 492.683350,331.149231 488.968658,348.758087 
	C488.428345,351.319275 487.719086,354.229462 486.086487,356.107544 
	C479.743378,363.404480 478.304169,372.489197 475.688843,381.777100 
	C474.829773,382.188995 474.347137,382.145569 473.864532,382.102112 
z"/>
<path fill="#456DB4" opacity="1.000000" stroke="none" 
	d="
M239.005402,145.007248 
	C235.015137,145.003479 231.520630,144.906281 228.033386,145.024246 
	C225.018570,145.126236 223.912109,143.781754 223.925064,140.845154 
	C223.991013,125.882454 223.982101,110.919235 223.935532,95.956390 
	C223.927017,93.218285 225.092056,92.040916 227.815048,92.053505 
	C238.122620,92.101151 248.430573,92.096939 258.738251,92.068207 
	C261.677979,92.060005 262.935150,93.472282 262.929993,96.352768 
	C262.903168,111.315636 262.897827,126.278641 262.939789,141.241440 
	C262.947632,144.038910 261.634003,145.050217 258.955933,145.020294 
	C252.472824,144.947830 245.988266,145.003311 239.005402,145.007248 
M254.156830,138.146515 
	C255.063126,136.847916 256.728455,135.564941 256.755585,134.248230 
	C256.971558,123.770752 256.830780,113.286537 256.908051,102.805183 
	C256.928284,100.063370 255.911102,98.918388 253.103027,98.966217 
	C246.449783,99.079559 239.790771,99.109337 233.139206,98.954041 
	C230.005585,98.880875 229.124512,100.252869 229.150497,103.140213 
	C229.241867,113.288559 229.277313,123.439552 229.132690,133.586670 
	C229.083908,137.008667 230.260284,138.356812 233.755310,138.253220 
	C240.238510,138.061081 246.731293,138.192535 254.156830,138.146515 
z"/>
<path fill="#15395E" opacity="1.000000" stroke="none" 
	d="
M473.678589,382.114197 
	C474.347137,382.145569 474.829773,382.188995 475.673004,382.175262 
	C476.868073,382.340210 477.702545,382.562317 479.244781,382.763062 
	C481.964783,382.505005 483.976990,382.268311 485.989197,382.031616 
	C487.085266,382.335114 488.169708,382.839264 489.279602,382.903412 
	C492.265839,383.075928 492.799133,384.549896 492.210144,387.236938 
	C490.405762,395.468933 488.765808,403.736938 487.108765,412.392883 
	C478.692932,412.815430 470.230194,412.836029 461.283936,412.796173 
	C459.287903,405.806885 457.770996,398.878967 456.264069,391.948883 
	C454.471039,383.702911 454.474762,383.702087 462.995728,382.266235 
	C464.704132,382.303680 465.762939,382.508209 467.258240,382.797913 
	C468.873596,382.801910 470.052429,382.720642 471.482819,382.638611 
	C472.196442,382.460754 472.658539,382.283691 473.120605,382.106628 
	C473.120605,382.106628 473.492676,382.126282 473.678589,382.114197 
z"/>
<path fill="#4E7EC6" opacity="1.000000" stroke="none" 
	d="
M463.486877,374.176300 
	C459.030060,365.169678 454.503021,356.196503 450.178223,347.126862 
	C449.357178,345.404968 449.020752,343.303955 449.001923,341.372620 
	C448.911530,332.099365 448.228333,322.733368 449.297668,313.580444 
	C450.068726,306.980316 452.833801,300.480499 455.489899,294.269653 
	C458.268341,287.772675 461.980011,281.674805 466.015228,274.013824 
	C466.015228,277.706329 466.002289,280.214539 466.017761,282.722504 
	C466.059387,289.477661 466.217468,296.234222 466.121002,302.987244 
	C466.067139,306.757019 465.598297,310.520874 464.825745,314.579834 
	C462.487152,313.570099 460.639221,312.267944 458.384003,310.678772 
	C456.327484,316.293488 456.806335,321.571808 457.790588,326.987549 
	C459.055908,333.949921 459.943909,340.980896 460.836853,348.323120 
	C458.422028,353.593079 459.621429,358.321991 461.548035,362.989197 
	C463.620697,368.010223 465.858673,372.968048 467.743317,378.057587 
	C468.131256,379.105316 467.277618,380.612793 466.975922,381.548462 
	C465.799377,378.851166 464.643127,376.513733 463.486877,374.176300 
z"/>
<path fill="#466EB5" opacity="1.000000" stroke="none" 
	d="
M460.994446,347.982330 
	C459.943909,340.980896 459.055908,333.949921 457.790588,326.987549 
	C456.806335,321.571808 456.327484,316.293488 458.384003,310.678772 
	C460.639221,312.267944 462.487152,313.570099 464.667694,314.937347 
	C468.026154,323.578186 471.033997,332.160370 474.082886,340.727905 
	C477.109253,349.232239 475.068604,357.795624 474.416229,366.338013 
	C474.038208,371.287598 473.517090,376.226227 473.090515,381.638214 
	C472.658539,382.283691 472.196442,382.460754 471.413574,382.234894 
	C469.282501,370.084595 468.454163,358.044281 460.994446,347.982330 
z"/>
<path fill="#021536" opacity="1.000000" stroke="none" 
	d="
M372.129700,338.094421 
	C374.110443,338.066315 376.091156,338.038239 378.495544,338.035278 
	C378.892029,355.884155 378.854095,373.707916 378.844513,391.531708 
	C378.841736,396.693207 377.617188,402.179016 382.008911,406.548584 
	C376.747833,406.968567 371.950958,406.982605 367.222656,406.650269 
	C371.126129,402.720581 371.219208,398.106049 371.263092,393.274109 
	C371.430267,374.879761 371.821930,356.487488 372.129700,338.094421 
z"/>
<path fill="#466EB5" opacity="1.000000" stroke="none" 
	d="
M486.250275,381.795349 
	C483.976990,382.268311 481.964783,382.505005 479.574036,382.703735 
	C481.048065,378.406525 481.761505,372.110260 484.987244,370.306305 
	C491.988312,366.390991 494.361725,359.854279 498.010834,353.894135 
	C500.004852,350.637268 501.698639,347.187775 503.825897,344.025665 
	C504.656128,342.791504 506.304291,342.107697 508.907684,340.200531 
	C508.591736,350.023071 507.114716,358.053558 504.656342,366.106537 
	C501.826233,375.377136 494.403931,378.587402 486.250275,381.795349 
z"/>
<path fill="#3E5684" opacity="1.000000" stroke="none" 
	d="
M282.009399,223.406433 
	C281.259216,223.934006 280.505981,224.014999 278.914551,224.089386 
	C273.387451,224.113770 268.698578,224.144806 263.759247,224.090759 
	C263.341003,223.951538 263.173187,223.897369 263.004120,223.384399 
	C263.001953,220.133408 262.902771,217.337128 263.019745,214.549911 
	C263.293396,208.029465 263.670654,201.513351 264.005951,194.995483 
	C268.456940,198.631088 273.073944,202.084488 277.315887,205.949509 
	C282.348846,210.535233 282.277069,216.778152 282.009399,223.406433 
z"/>
<path fill="#466EB5" opacity="1.000000" stroke="none" 
	d="
M463.094666,374.087372 
	C464.643127,376.513733 465.799377,378.851166 466.934265,381.750244 
	C466.912964,382.311920 466.821747,382.712708 466.821747,382.712708 
	C465.762939,382.508209 464.704132,382.303680 463.323883,382.049194 
	C458.738708,380.680786 454.510742,379.229248 450.204071,378.070435 
	C439.936096,375.307648 436.222504,367.450928 440.586426,357.683655 
	C442.519165,353.357880 444.227814,348.932037 446.523010,343.378540 
	C447.749298,347.740356 449.978424,351.718903 449.724396,355.532043 
	C449.055023,365.578217 454.783997,370.382446 463.094666,374.087372 
z"/>
<path fill="#64779A" opacity="1.000000" stroke="none" 
	d="
M242.012604,175.066650 
	C242.575821,175.554184 243.139023,176.041702 243.848633,177.238220 
	C243.995743,191.392242 243.954834,204.837585 244.044128,218.282059 
	C244.056824,220.196152 244.701172,222.106049 244.844604,224.300323 
	C240.905334,228.224350 245.871231,231.376526 244.948914,235.187851 
	C244.454956,238.985550 244.427551,242.470413 243.922684,245.884705 
	C243.606537,248.022690 242.571930,250.054443 241.632919,251.858749 
	C239.960739,247.045837 238.515335,242.508041 237.418671,237.810455 
	C238.178329,236.126541 238.938568,234.604065 238.945679,233.078064 
	C239.011398,218.992599 238.946991,204.906509 239.032990,190.480835 
	C238.762817,187.458237 238.380066,184.775391 237.986450,181.734985 
	C239.321243,179.273804 240.666916,177.170227 242.012604,175.066650 
z"/>
<path fill="#456DB4" opacity="1.000000" stroke="none" 
	d="
M223.355743,173.020508 
	C228.445969,170.455902 233.708267,170.440323 239.433319,172.323456 
	C234.220001,180.901520 228.647568,189.115402 222.907257,197.001007 
	C217.668762,191.795349 216.059875,185.998306 218.392044,179.050415 
	C220.237686,176.920456 221.796707,174.970490 223.355743,173.020508 
z"/>
<path fill="#14385C" opacity="1.000000" stroke="none" 
	d="
M367.154053,406.996674 
	C371.950958,406.982605 376.747833,406.968567 382.075317,406.944458 
	C389.086273,406.944580 395.567108,407.005096 402.046875,406.944763 
	C405.577393,406.911896 407.811646,408.232758 408.154388,412.360443 
	C390.077301,412.804291 371.945496,412.878540 353.327576,412.952271 
	C352.641510,412.929535 352.441498,412.907379 352.086609,412.521912 
	C352.503632,410.366425 353.075592,408.574219 354.133911,406.821594 
	C358.798187,406.906372 362.976105,406.951538 367.154053,406.996674 
z"/>
<path fill="#0A1734" opacity="1.000000" stroke="none" 
	d="
M344.482117,320.905914 
	C344.482117,320.905914 344.269104,320.889832 344.169678,320.431091 
	C344.061615,315.382538 344.052979,310.792786 344.353699,306.053131 
	C350.176666,298.063690 357.549530,293.561798 367.279114,293.199585 
	C376.102325,292.871094 384.922943,292.474213 393.744720,292.107483 
	C397.824524,292.058502 401.904297,292.009521 406.435150,292.045959 
	C406.457855,293.355835 406.029510,294.580231 404.911346,295.955688 
	C401.436279,296.323944 398.651031,296.541199 395.410645,296.675659 
	C386.826538,296.802917 378.691833,296.892761 370.571320,297.279755 
	C367.124451,297.444000 363.551270,297.756378 360.305267,298.822601 
	C349.773926,302.281891 345.902588,310.776978 344.482117,320.905914 
z"/>
<path fill="#51668E" opacity="1.000000" stroke="none" 
	d="
M249.066559,181.963638 
	C250.933441,183.450897 252.800323,184.938141 254.836182,187.176804 
	C254.989517,199.900879 254.973862,211.873550 254.983826,223.929810 
	C255.009460,224.013397 255.056976,224.181351 254.618195,224.128357 
	C252.125671,223.999756 250.071930,223.924149 248.014069,223.389374 
	C248.006897,211.179443 247.956360,199.428314 248.048615,187.678284 
	C248.063583,185.770859 248.711319,183.868393 249.066559,181.963638 
z"/>
<path fill="#475E88" opacity="1.000000" stroke="none" 
	d="
M254.958191,223.846222 
	C254.973862,211.873550 254.989517,199.900879 255.009094,187.458344 
	C257.894531,189.468201 260.776062,191.947922 263.831787,194.711578 
	C263.670654,201.513351 263.293396,208.029465 263.019745,214.549911 
	C262.902771,217.337128 263.001953,220.133408 262.560455,223.438583 
	C259.731415,223.916473 257.344788,223.881348 254.958191,223.846222 
z"/>
<path fill="#AC5445" opacity="1.000000" stroke="none" 
	d="
M393.842255,291.952545 
	C384.922943,292.474213 376.102325,292.871094 367.279114,293.199585 
	C357.549530,293.561798 350.176666,298.063690 344.348480,305.566345 
	C344.118073,299.943085 344.202209,294.656799 344.686096,289.303650 
	C348.082825,288.767212 351.079834,288.297668 354.076813,287.828064 
	C367.124237,289.030090 380.171661,290.232117 393.693787,291.472900 
	C394.168488,291.511627 393.939789,291.797607 393.842255,291.952545 
z"/>
<path fill="#EF8C80" opacity="1.000000" stroke="none" 
	d="
M315.095001,258.036804 
	C315.032440,257.853699 314.969910,257.670593 314.844482,257.204071 
	C320.798584,255.219925 326.734222,253.083832 332.855255,251.939560 
	C339.127258,250.767059 343.055542,247.176910 346.513611,241.882385 
	C348.940826,243.647812 350.882080,245.516205 352.825745,247.767517 
	C352.849915,249.444412 352.871704,250.738358 352.553070,252.184723 
	C339.923096,254.777588 328.026978,259.780060 315.095001,258.036804 
z"/>
<path fill="#5B6F94" opacity="1.000000" stroke="none" 
	d="
M248.888718,181.691940 
	C248.711319,183.868393 248.063583,185.770859 248.048615,187.678284 
	C247.956360,199.428314 248.006897,211.179443 247.645096,223.439819 
	C246.537888,223.972260 245.795532,223.995087 245.053177,224.017899 
	C244.701172,222.106049 244.056824,220.196152 244.044128,218.282059 
	C243.954834,204.837585 243.995743,191.392242 243.993927,177.479828 
	C245.565491,178.481720 247.138184,179.950974 248.888718,181.691940 
z"/>
<path fill="#D3D8F5" opacity="1.000000" stroke="none" 
	d="
M352.823364,247.384598 
	C350.882080,245.516205 348.940826,243.647812 346.728394,241.561829 
	C346.369110,239.788727 345.627594,237.807770 346.312653,236.755722 
	C348.565704,233.295502 351.335907,230.172028 353.981628,226.599136 
	C355.154114,225.186508 356.252380,224.093948 357.632111,223.242096 
	C356.216858,231.450073 354.520111,239.417343 352.823364,247.384598 
z"/>
<path fill="#2B3B5C" opacity="1.000000" stroke="none" 
	d="
M223.075150,197.329300 
	C228.647568,189.115402 234.220001,180.901520 239.843445,172.345337 
	C240.671188,172.824493 241.447937,173.645920 242.118637,174.766998 
	C240.666916,177.170227 239.321243,179.273804 237.666290,181.830109 
	C235.285873,185.519043 233.214737,188.755264 230.814331,192.091858 
	C228.638565,194.797729 226.792099,197.403229 224.646637,199.929352 
	C223.923462,199.009735 223.499313,198.169525 223.075150,197.329300 
z"/>
<path fill="#AF5643" opacity="1.000000" stroke="none" 
	d="
M223.072083,172.783081 
	C221.796707,174.970490 220.237686,176.920456 218.108734,178.837738 
	C216.160706,176.657883 214.782593,174.510727 213.578979,172.164062 
	C213.894302,171.639832 214.035110,171.315125 214.175934,170.990402 
	C217.585052,168.527924 220.145966,170.762512 223.072083,172.783081 
z"/>
<path fill="#20304D" opacity="1.000000" stroke="none" 
	d="
M213.921600,170.774765 
	C214.035110,171.315125 213.894302,171.639832 213.171997,172.079041 
	C212.040482,172.159912 211.490433,172.126312 210.564072,172.070633 
	C207.887054,173.456238 205.586334,174.863907 202.992615,176.245850 
	C202.118439,176.088608 201.537292,175.957092 201.142136,175.561188 
	C201.918076,174.162491 202.507996,173.028152 203.097931,171.893829 
	C205.761368,171.188522 208.424789,170.483231 211.483093,169.718018 
	C212.474396,169.958466 213.070847,170.258804 213.921600,170.774765 
z"/>
<path fill="#466EB5" opacity="1.000000" stroke="none" 
	d="
M444.509888,341.500214 
	C444.516815,341.521515 444.502991,341.478912 444.509888,341.500214 
z"/>
<path fill="#15395E" opacity="1.000000" stroke="none" 
	d="
M104.251793,412.779388 
	C95.761337,412.810791 87.270882,412.842163 78.298187,412.814972 
	C77.891846,392.471558 78.001114,372.186768 78.033005,351.901825 
	C78.058105,335.937836 77.987762,319.973663 78.404510,303.523041 
	C87.300056,303.065674 95.750923,303.094879 104.129517,303.580139 
	C104.013077,311.499756 104.257797,318.980164 103.821373,326.420654 
	C103.538757,331.238770 105.435097,332.154724 109.791748,332.118195 
	C131.853775,331.933105 153.918259,332.038971 175.981873,332.042816 
	C176.002396,332.570374 176.022934,333.097931 175.567627,333.990051 
	C153.118835,334.338318 131.145142,334.411011 109.173599,334.227966 
	C104.957733,334.192841 103.736008,335.658081 103.850632,339.728027 
	C104.103600,348.709900 104.160759,357.712341 103.831238,366.689270 
	C103.667404,371.152191 105.146248,372.328705 109.491737,372.295868 
	C131.629135,372.128632 153.768829,372.268677 175.907730,372.301147 
	C175.987961,373.021667 176.068192,373.742188 175.585327,374.682953 
	C153.034607,374.908234 131.046951,374.902191 109.059341,374.934296 
	C106.681190,374.937775 103.842758,374.210602 103.912842,378.321167 
	C104.108635,389.805847 104.149673,401.293121 104.251793,412.779388 
z"/>
<path fill="#4F7FC7" opacity="1.000000" stroke="none" 
	d="
M104.703270,412.786438 
	C104.149673,401.293121 104.108635,389.805847 103.912842,378.321167 
	C103.842758,374.210602 106.681190,374.937775 109.059341,374.934296 
	C131.046951,374.902191 153.034607,374.908234 175.487366,374.893616 
	C176.259842,377.652222 176.805695,380.418213 176.831223,383.189026 
	C176.918610,392.676270 176.823334,402.165161 176.788162,412.088379 
	C152.903976,412.613373 129.029358,412.703430 104.703270,412.786438 
z"/>
<path fill="#4F7FC7" opacity="1.000000" stroke="none" 
	d="
M176.124863,371.921417 
	C153.768829,372.268677 131.629135,372.128632 109.491737,372.295868 
	C105.146248,372.328705 103.667404,371.152191 103.831238,366.689270 
	C104.160759,357.712341 104.103600,348.709900 103.850632,339.728027 
	C103.736008,335.658081 104.957733,334.192841 109.173599,334.227966 
	C131.145142,334.411011 153.118835,334.338318 175.563705,334.386108 
	C176.315277,339.017822 176.820358,343.617950 176.824112,348.218445 
	C176.830444,355.992706 176.519516,363.767273 176.124863,371.921417 
z"/>
<path fill="#4E7EC6" opacity="1.000000" stroke="none" 
	d="
M176.200256,331.689972 
	C153.918259,332.038971 131.853775,331.933105 109.791748,332.118195 
	C105.435097,332.154724 103.538757,331.238770 103.821373,326.420654 
	C104.257797,318.980164 104.013077,311.499756 104.583282,303.584473 
	C129.010910,303.224091 152.912491,303.315430 176.814072,303.406769 
	C176.682251,312.716888 176.550446,322.027008 176.200256,331.689972 
z"/>
<path fill="#15375C" opacity="1.000000" stroke="none" 
	d="
M344.286316,289.370483 
	C344.202209,294.656799 344.118073,299.943085 344.039154,305.716187 
	C344.052979,310.792786 344.061615,315.382538 344.062958,320.426147 
	C344.070648,325.906677 344.085632,330.933319 344.090149,336.895691 
	C344.116119,351.309418 344.152527,364.787415 344.152466,378.716400 
	C344.158234,387.817993 344.200470,396.468628 344.172150,405.541199 
	C344.167999,408.236237 344.234406,410.509277 343.843231,412.815063 
	C342.168549,412.764648 340.951477,412.681519 339.782410,412.168671 
	C339.868866,403.728088 339.907227,395.717224 339.943787,387.264130 
	C339.851807,380.654022 339.761658,374.486145 339.741150,367.828064 
	C339.765015,356.827301 339.719269,346.316681 339.714874,335.402893 
	C340.305267,331.382477 339.100555,329.287659 335.092407,329.431427 
	C333.128632,329.501923 331.157227,329.360413 328.719666,329.249451 
	C324.471680,329.226685 320.693298,329.269318 316.496033,329.305054 
	C313.413910,329.427399 310.750702,329.556610 307.650269,329.631958 
	C300.200378,329.712982 293.187744,329.847839 285.695984,329.957031 
	C256.090179,329.922974 226.963501,329.924927 197.836853,329.891296 
	C194.689819,329.887665 191.914124,329.666748 191.948471,334.327637 
	C192.141022,360.454895 192.136368,386.583618 192.199051,412.711853 
	C191.015228,412.749817 189.831390,412.787811 188.203247,412.757385 
	C187.826050,395.058167 187.930252,377.427368 187.951721,359.796478 
	C187.985367,332.181519 187.963104,304.566467 188.372253,276.458130 
	C189.848389,275.971283 190.916809,275.977814 191.990677,276.454376 
	C191.999268,291.226349 192.106735,305.529510 191.936859,319.829376 
	C191.890701,323.714569 193.147476,325.047974 197.084763,325.028870 
	C228.015701,324.878571 258.947479,324.902679 290.362854,324.876251 
	C303.543396,324.820221 316.240082,324.760986 329.391235,324.772247 
	C331.994232,324.869385 334.144012,324.857513 336.290802,324.932129 
	C339.192230,325.032990 340.240570,323.730347 339.529053,320.482727 
	C339.525360,312.052765 339.446136,304.080902 339.481079,295.707733 
	C339.586517,293.665894 339.577820,292.025360 339.646118,289.901764 
	C339.795532,284.963684 339.867950,280.508667 340.345093,276.020020 
	C341.832367,275.989136 342.914886,275.991913 344.002502,276.460876 
	C344.100525,281.074860 344.193420,285.222656 344.286316,289.370483 
z"/>
<path fill="#051635" opacity="1.000000" stroke="none" 
	d="
M191.985214,275.984344 
	C190.916809,275.977814 189.848389,275.971283 188.379547,275.990540 
	C186.829285,275.874207 185.364319,276.120880 184.600891,275.502075 
	C183.348145,274.486603 181.685577,272.826996 181.803116,271.591980 
	C181.922241,270.340179 183.812744,268.846405 185.255035,268.247162 
	C186.682480,267.654053 188.519043,268.045563 191.071213,268.019623 
	C207.639435,268.009918 223.312592,267.985748 239.425385,268.007385 
	C241.925919,267.996124 243.986847,267.939117 246.369049,267.931824 
	C247.121750,267.950775 247.553177,267.920013 248.446671,267.956360 
	C253.289749,267.958954 257.670746,267.894440 262.294403,267.867645 
	C262.537079,267.905334 263.024384,267.843842 263.477112,267.950714 
	C268.285980,268.022675 272.642151,267.987732 276.998322,267.952820 
	C300.336700,267.995605 323.675049,268.038361 347.844604,268.081696 
	C349.809174,269.562042 350.942535,271.041809 352.075897,272.521545 
	C350.515381,273.626770 349.047638,274.917114 347.357513,275.763611 
	C346.431274,276.227539 345.129730,275.942169 343.997406,275.994690 
	C342.914886,275.991913 341.832367,275.989136 339.884583,275.967102 
	C290.007935,275.959961 240.996582,275.972137 191.985214,275.984344 
z"/>
<path fill="#1E2F49" opacity="1.000000" stroke="none" 
	d="
M177.210892,303.283081 
	C152.912491,303.315430 129.010910,303.224091 104.655548,303.128387 
	C95.750923,303.094879 87.300056,303.065674 78.370148,303.060760 
	C77.343590,301.112152 76.281990,299.084015 76.485313,297.191833 
	C76.574692,296.360016 79.184135,295.581299 80.752037,295.191559 
	C82.129097,294.849304 83.649475,295.083649 86.022766,295.003662 
	C94.264496,294.868011 101.590004,294.792023 109.281311,294.937897 
	C114.107346,295.173126 118.567574,295.186493 123.149841,295.274963 
	C123.576050,295.428619 123.813995,295.328613 123.962257,295.051453 
	C123.938805,295.052826 123.906136,295.018799 123.906136,295.018799 
	C124.381958,295.050507 124.857773,295.082184 125.918396,295.285553 
	C127.627708,295.331543 128.752213,295.205902 130.274902,295.211670 
	C142.174072,295.272217 153.675064,295.201355 165.176041,295.130493 
	C168.636673,295.131378 172.121078,294.896423 175.547012,295.241638 
	C177.053864,295.393494 179.649384,296.735901 179.643051,297.520752 
	C179.627838,299.405640 178.366333,301.280487 177.210892,303.283081 
z"/>
<path fill="#4E7EC6" opacity="1.000000" stroke="none" 
	d="
M165.170486,294.651917 
	C153.675064,295.201355 142.174072,295.272217 130.264801,294.737701 
	C129.876099,288.420258 129.895676,282.708160 129.915253,276.996094 
	C140.028442,276.957825 150.143570,277.021362 160.253769,276.827271 
	C163.902145,276.757202 165.362091,278.066132 165.184860,281.740265 
	C164.985397,285.875336 165.155563,290.028198 165.170486,294.651917 
M133.011108,284.502472 
	C132.727280,287.590424 133.925247,289.074646 137.234787,289.014130 
	C144.518799,288.880798 151.807724,288.906677 159.092941,288.999603 
	C162.223785,289.039490 163.013046,287.454102 163.027405,284.663666 
	C163.042419,281.748779 162.430527,279.905823 158.947647,279.969482 
	C151.663651,280.102661 144.375229,280.047333 137.089264,279.989594 
	C134.531097,279.969360 132.875610,280.729279 133.011108,284.502472 
z"/>
<path fill="#466EB5" opacity="1.000000" stroke="none" 
	d="
M238.985748,267.961609 
	C223.312592,267.985748 207.639435,268.009918 191.504059,267.972046 
	C191.106430,263.492035 193.736603,261.491547 198.428650,260.768494 
	C199.691406,260.760651 200.273804,260.777130 201.264755,260.834137 
	C202.492676,260.846893 203.312012,260.819092 204.444916,260.820251 
	C205.178192,260.847443 205.597916,260.845673 206.478790,260.881104 
	C215.072418,260.938263 223.205795,260.892944 231.337051,261.004059 
	C235.826294,261.065399 239.228561,262.575684 238.985748,267.961609 
z"/>
<path fill="#AB5948" opacity="1.000000" stroke="none" 
	d="
M206.017639,260.843933 
	C205.597916,260.845673 205.178192,260.847443 204.345276,260.476562 
	C201.613068,253.716110 199.294052,247.328247 196.944214,240.572647 
	C195.776382,236.936142 194.639389,233.667389 193.502411,230.398621 
	C192.783524,230.656250 192.064621,230.913879 191.345734,231.171509 
	C192.500885,234.466812 193.656021,237.762131 194.848297,241.444092 
	C196.875656,248.151718 198.865921,254.472656 200.856186,260.793610 
	C200.273804,260.777130 199.691406,260.760651 198.827454,260.676208 
	C196.378159,254.291382 194.210449,247.974564 191.894623,241.299896 
	C190.829987,238.199127 189.913467,235.456192 188.843887,232.086426 
	C188.440338,230.967163 188.189850,230.474731 187.952026,229.672791 
	C187.915710,228.953217 187.866745,228.543137 188.137756,228.123199 
	C190.495544,227.695236 192.533340,227.277145 194.756012,227.162247 
	C195.613571,228.950333 196.286240,230.435196 197.004852,232.293121 
	C198.054642,235.438110 199.058487,238.210068 200.111588,241.352203 
	C202.113098,248.096237 204.065369,254.470093 206.017639,260.843933 
z"/>
<path fill="#C8CEED" opacity="1.000000" stroke="none" 
	d="
M108.915504,294.716034 
	C101.590004,294.792023 94.264496,294.868011 86.466141,294.940002 
	C85.962929,292.900879 85.932564,290.865814 86.317627,288.331848 
	C93.940887,287.896637 101.148697,287.960266 108.568588,288.332428 
	C108.825607,290.665985 108.870560,292.691010 108.915504,294.716034 
z"/>
<path fill="#B65644" opacity="1.000000" stroke="none" 
	d="
M109.281311,294.937897 
	C108.870560,292.691010 108.825607,290.665985 108.476654,288.103455 
	C108.172653,287.565918 108.076820,287.084839 108.533905,287.043915 
	C113.006714,286.901855 117.022430,286.800720 121.038147,286.699554 
	C125.968430,287.601624 125.690773,290.720490 124.094147,294.669800 
	C123.906136,295.018799 123.938805,295.052826 123.719711,295.068176 
	C123.500610,295.083496 123.027802,295.199829 123.027802,295.199829 
	C118.567574,295.186493 114.107346,295.173126 109.281311,294.937897 
z"/>
<path fill="#C8CEED" opacity="1.000000" stroke="none" 
	d="
M83.692383,285.005127 
	C83.850471,283.704956 84.008568,282.404816 84.173355,281.049561 
	C91.457832,281.049561 98.710342,281.049561 106.468033,281.084290 
	C106.973213,281.118988 106.926460,281.027740 106.844505,281.432617 
	C106.129776,283.164978 105.498322,285.642944 104.864021,285.643677 
	C97.807068,285.651764 90.749672,285.276733 83.692383,285.005127 
z"/>
<path fill="#4E7EC6" opacity="1.000000" stroke="none" 
	d="
M121.246811,286.432922 
	C117.022430,286.800720 113.006714,286.901855 108.509056,286.639160 
	C107.660225,284.526123 107.293343,282.776917 106.926460,281.027740 
	C106.926460,281.027740 106.973213,281.118988 106.927269,281.142395 
	C111.421471,280.850433 116.045563,279.871643 120.474869,280.432129 
	C123.940956,280.870758 123.317596,283.834442 121.246811,286.432922 
z"/>
<path fill="#173A61" opacity="1.000000" stroke="none" 
	d="
M129.510071,276.996063 
	C129.895676,282.708160 129.876099,288.420258 129.866623,294.606262 
	C128.752213,295.205902 127.627708,295.331543 126.276138,295.278625 
	C126.037056,290.367401 125.796402,285.617310 126.155350,280.912994 
	C126.260086,279.540314 128.074265,278.298065 129.510071,276.996063 
z"/>
<path fill="#64779A" opacity="1.000000" stroke="none" 
	d="
M106.844505,281.432617 
	C107.293343,282.776917 107.660225,284.526123 108.051971,286.680054 
	C108.076820,287.084839 108.172653,287.565918 108.264587,287.794922 
	C101.148697,287.960266 93.940887,287.896637 86.252129,287.896667 
	C84.968735,287.110626 84.166283,286.260925 83.528107,285.208160 
	C90.749672,285.276733 97.807068,285.651764 104.864021,285.643677 
	C105.498322,285.642944 106.129776,283.164978 106.844505,281.432617 
z"/>
<path fill="#001333" opacity="1.000000" stroke="none" 
	d="
M187.817780,228.133057 
	C187.866745,228.543137 187.915710,228.953217 187.487701,229.672852 
	C153.860031,229.983276 120.709358,229.987869 87.558685,229.981857 
	C80.951775,229.980652 80.933464,229.961975 80.931976,223.354462 
	C80.924538,190.203796 80.927490,157.053146 80.926788,123.902481 
	C120.730553,123.858269 160.534317,123.812393 200.338089,123.784637 
	C200.980545,123.784195 201.623154,124.005562 203.081863,124.273117 
	C203.081863,139.802124 203.081863,155.386444 203.089890,171.432281 
	C202.507996,173.028152 201.918076,174.162491 200.830963,175.572571 
	C199.338776,176.605072 197.699646,177.190430 197.445786,178.144409 
	C193.910995,191.426758 190.565796,204.759583 186.976700,218.384583 
	C183.382278,222.248764 185.286255,225.225418 187.817780,228.133057 
z"/>
<path fill="#011434" opacity="1.000000" stroke="none" 
	d="
M203.078735,79.000031 
	C203.078766,92.319298 203.078766,105.138565 203.078766,118.543930 
	C201.174301,118.670113 199.588531,118.866188 198.002670,118.866913 
	C160.338669,118.884109 122.674255,118.797607 85.011131,118.980064 
	C80.041191,119.004143 78.818558,117.252167 78.878670,112.602745 
	C79.098412,95.606781 79.112839,78.604156 78.869186,61.608849 
	C78.802582,56.963257 80.331680,55.603859 84.869087,55.620636 
	C122.532585,55.759884 160.197052,55.760818 197.860489,55.614048 
	C202.058899,55.597683 203.379242,56.883472 203.157227,61.005650 
	C202.844009,66.821648 203.078415,72.667152 203.078735,79.000031 
M160.072220,93.638344 
	C167.323914,99.584122 176.175812,99.411774 182.007172,93.211296 
	C187.823044,87.027252 187.398331,77.451088 180.549652,70.308853 
	C179.268021,69.564850 178.047012,68.679138 176.694565,68.100693 
	C169.829620,65.164528 161.837540,67.704140 157.543610,74.107674 
	C153.511368,80.120903 154.361435,87.636139 160.072220,93.638344 
z"/>
<path fill="#173A61" opacity="1.000000" stroke="none" 
	d="
M80.527847,123.912315 
	C80.927490,157.053146 80.924538,190.203796 80.931976,223.354462 
	C80.933464,229.961975 80.951775,229.980652 87.558685,229.981857 
	C120.709358,229.987869 153.860031,229.983276 187.475037,229.982346 
	C188.189850,230.474731 188.440338,230.967163 188.711029,231.737335 
	C153.566010,232.030151 118.400551,231.990555 83.235870,232.136017 
	C79.254669,232.152466 78.099190,230.850220 78.113564,226.962494 
	C78.234390,194.297485 78.153038,161.631729 78.264496,128.966644 
	C78.270233,127.283035 79.479813,125.603554 80.527847,123.912315 
z"/>
<path fill="#B8C4ED" opacity="1.000000" stroke="none" 
	d="
M259.181091,413.033142 
	C250.045258,413.052704 241.111374,412.990021 231.812698,412.526550 
	C236.720551,409.349945 241.993225,406.574158 247.647476,403.892456 
	C252.695129,403.815674 257.361176,403.644867 262.247864,403.770813 
	C262.610168,406.588898 262.751892,409.110260 262.563171,411.737976 
	C261.427917,412.203766 260.623077,412.563141 259.818207,412.922546 
	C259.818207,412.922516 259.383026,412.950867 259.181091,413.033142 
z"/>
<path fill="#B4BFE8" opacity="1.000000" stroke="none" 
	d="
M344.300812,412.782318 
	C344.234406,410.509277 344.167999,408.236237 344.398315,405.279175 
	C347.142914,398.814056 349.590820,393.032990 352.397583,387.304749 
	C358.806274,389.263153 358.698914,389.243622 356.709229,395.291260 
	C355.472473,399.050385 354.653839,402.947083 353.647522,406.782013 
	C353.075592,408.574219 352.503632,410.366425 351.787415,412.481750 
	C351.643158,412.804871 351.301239,412.765808 350.742859,412.799835 
	C348.223236,412.816681 346.262024,412.799500 344.300812,412.782318 
z"/>
<path fill="#001333" opacity="1.000000" stroke="none" 
	d="
M343.843231,412.815063 
	C346.262024,412.799500 348.223236,412.816681 350.602081,412.898773 
	C349.608917,413.308502 348.198761,413.951111 346.787201,413.954071 
	C319.399200,414.011963 292.011047,414.000061 264.622955,413.973511 
	C263.649292,413.972565 262.675873,413.674744 261.717957,413.264282 
	C262.194336,412.953186 262.655090,412.893097 263.575012,412.842468 
	C289.267548,412.767395 314.500977,412.682892 339.734375,412.598389 
	C340.951477,412.681519 342.168549,412.764648 343.843231,412.815063 
z"/>
<path fill="#15375C" opacity="1.000000" stroke="none" 
	d="
M263.115875,412.833008 
	C262.655090,412.893097 262.194336,412.953186 261.385925,413.021240 
	C260.834839,413.012543 260.631409,412.995880 260.123077,412.950867 
	C260.623077,412.563141 261.427917,412.203766 262.599609,412.041809 
	C263.016266,412.437164 263.066071,412.635071 263.115875,412.833008 
z"/>
<path fill="#355389" opacity="1.000000" stroke="none" 
	d="
M247.265869,403.798370 
	C241.993225,406.574158 236.720551,409.349945 231.369934,412.437958 
	C218.560776,412.769653 205.829590,412.789124 192.648712,412.760193 
	C192.136368,386.583618 192.141022,360.454895 191.948471,334.327637 
	C191.914124,329.666748 194.689819,329.887665 197.836853,329.891296 
	C226.963501,329.924927 256.090179,329.922974 285.597076,330.308105 
	C276.714203,348.490417 267.424591,366.282349 258.236847,384.126740 
	C257.475220,385.605988 257.403381,387.440369 256.869690,389.413727 
	C253.574234,394.411224 250.420044,399.104797 247.265869,403.798370 
z"/>
<path fill="#F3A291" opacity="1.000000" stroke="none" 
	d="
M366.986694,217.412308 
	C367.051727,214.712082 366.719360,211.927277 367.271973,209.330811 
	C368.172913,205.097366 364.851959,205.096405 362.580566,203.799561 
	C356.113800,200.107330 353.043915,184.164200 357.547302,178.071823 
	C360.534790,174.030212 365.319366,174.190735 368.487823,178.194595 
	C371.284607,181.728729 373.371277,186.286591 379.105499,186.285797 
	C379.497284,186.285751 380.894409,191.141312 380.122955,191.828125 
	C373.873169,197.392502 376.504120,203.529526 378.333923,209.694168 
	C378.711182,210.965149 379.174927,212.210495 379.597046,214.112778 
	C378.269409,216.807388 377.354187,219.416901 375.514557,220.765656 
	C373.176910,222.479553 370.089844,223.171265 367.325867,224.303680 
	C367.212799,222.006561 367.099762,219.709427 366.986694,217.412308 
z"/>
<path fill="#D3D8F5" opacity="1.000000" stroke="none" 
	d="
M393.868256,233.546982 
	C390.752960,237.142685 387.862396,240.490021 384.623657,243.457321 
	C382.044708,245.820145 380.917816,250.563293 375.427521,248.843384 
	C372.001129,245.328110 369.032166,242.277527 366.061859,238.850464 
	C368.031708,235.485809 369.759460,232.296402 372.027008,229.553207 
	C376.200439,224.504211 380.691315,219.717590 385.049866,214.821625 
	C394.805725,216.858841 396.704498,220.768982 393.868256,233.546982 
z"/>
<path fill="#B8C4ED" opacity="1.000000" stroke="none" 
	d="
M384.744507,214.601013 
	C380.691315,219.717590 376.200439,224.504211 372.027008,229.553207 
	C369.759460,232.296402 368.031708,235.485809 365.877319,239.114807 
	C363.543243,242.493698 361.610840,245.450027 359.167419,247.895782 
	C357.433319,249.631531 355.009460,250.678116 352.893494,252.032318 
	C352.871704,250.738358 352.849915,249.444412 352.825745,247.767517 
	C354.520111,239.417343 356.216858,231.450073 357.916046,223.064682 
	C360.692902,220.971436 363.467285,219.296310 366.614197,217.516754 
	C367.099762,219.709427 367.212799,222.006561 367.325867,224.303680 
	C370.089844,223.171265 373.176910,222.479553 375.514557,220.765656 
	C377.354187,219.416901 378.269409,216.807388 379.741486,214.459167 
	C381.404846,214.233749 382.921967,214.307083 384.744507,214.601013 
z"/>
<path fill="#355389" opacity="1.000000" stroke="none" 
	d="
M354.133881,406.821594 
	C354.653839,402.947083 355.472473,399.050385 356.709229,395.291260 
	C358.698914,389.243622 358.806274,389.263153 352.142883,387.069641 
	C349.082520,383.942963 346.635742,381.104187 344.188934,378.265411 
	C344.152527,364.787415 344.116119,351.309418 344.124878,337.353577 
	C353.192810,337.254822 362.215515,337.633850 371.683960,338.053650 
	C371.821930,356.487488 371.430267,374.879761 371.263092,393.274109 
	C371.219208,398.106049 371.126129,402.720581 367.222656,406.650269 
	C362.976105,406.951538 358.798187,406.906372 354.133881,406.821594 
z"/>
<path fill="#B65644" opacity="1.000000" stroke="none" 
	d="
M344.987885,320.965210 
	C345.902588,310.776978 349.773926,302.281891 360.305267,298.822601 
	C363.551270,297.756378 367.124451,297.444000 370.571320,297.279755 
	C378.691833,296.892761 386.826538,296.802917 395.444336,297.163269 
	C396.613373,306.592499 397.299957,315.453552 387.981873,320.877380 
	C373.819122,320.926422 359.656403,320.975464 344.987885,320.965210 
z"/>
<path fill="#365389" opacity="1.000000" stroke="none" 
	d="
M388.430786,320.907227 
	C397.299957,315.453552 396.613373,306.592499 395.899475,297.246063 
	C398.651031,296.541199 401.436279,296.323944 404.660645,296.166138 
	C402.991577,303.694702 401.030243,311.211823 398.620789,318.582458 
	C398.249084,319.719421 395.893921,320.518372 394.321228,320.869080 
	C392.588531,321.255463 390.700226,320.944366 388.430786,320.907227 
z"/>
<path fill="#F6A493" opacity="1.000000" stroke="none" 
	d="
M352.553070,252.184708 
	C355.009460,250.678116 357.433319,249.631531 359.167419,247.895782 
	C361.610840,245.450027 363.543243,242.493698 365.878662,239.491302 
	C369.032166,242.277527 372.001129,245.328110 375.145782,248.681427 
	C372.110199,252.525330 368.720093,255.923218 365.737061,259.647217 
	C362.637909,263.516144 359.093536,265.970154 353.080688,265.309448 
	C350.789093,265.358154 349.349426,265.404694 347.909729,265.451233 
	C340.256805,265.361053 332.587189,264.928009 324.956665,265.298767 
	C319.688995,265.554779 316.298340,264.172150 315.166199,258.389343 
	C328.026978,259.780060 339.923096,254.777588 352.553070,252.184708 
z"/>
<path fill="#AB5948" opacity="1.000000" stroke="none" 
	d="
M277.000946,267.523682 
	C272.642151,267.987732 268.285980,268.022675 263.558807,267.552094 
	C263.458496,264.746307 263.947510,262.447510 263.963257,260.145477 
	C264.045074,248.156052 264.006409,236.165787 264.009705,224.175827 
	C268.698578,224.144806 273.387451,224.113770 278.539124,224.142426 
	C278.666077,230.138565 278.330231,236.075027 277.655365,242.536591 
	C273.362915,245.745148 273.477722,247.188278 277.836182,249.596344 
	C277.558655,255.429092 277.281097,261.261841 277.000946,267.523682 
z"/>
<path fill="#36548A" opacity="1.000000" stroke="none" 
	d="
M347.968445,265.755005 
	C349.349426,265.404694 350.789093,265.358154 352.658875,265.379059 
	C353.400391,272.603943 353.711792,279.761353 354.049988,287.373444 
	C351.079834,288.297668 348.082825,288.767212 344.686096,289.303650 
	C344.193420,285.222656 344.100525,281.074860 344.002502,276.460846 
	C345.129730,275.942169 346.431274,276.227539 347.357513,275.763611 
	C349.047638,274.917114 350.515381,273.626770 352.075897,272.521545 
	C350.942535,271.041809 349.809174,269.562042 348.302917,267.999451 
	C347.962433,267.297333 347.994781,266.678040 347.968445,265.755005 
z"/>
<path fill="#D3D8F5" opacity="1.000000" stroke="none" 
	d="
M278.069519,249.352173 
	C273.477722,247.188278 273.362915,245.745148 277.653015,243.000290 
	C280.418091,244.877289 281.024078,246.908188 278.069519,249.352173 
z"/>
<path fill="#14385C" opacity="1.000000" stroke="none" 
	d="
M324.825836,176.075943 
	C311.521759,176.076218 298.697235,175.965591 285.876709,176.143997 
	C282.185883,176.195343 280.905792,175.035690 280.983856,171.293839 
	C281.192291,161.306213 281.145721,151.310165 281.005615,141.320190 
	C280.960663,138.113281 282.020966,136.916428 285.307129,136.948227 
	C298.795013,137.078751 312.285492,137.071808 325.773560,136.952286 
	C328.983673,136.923843 330.200867,137.998230 330.155670,141.268463 
	C330.015289,151.424988 329.983368,161.586899 330.167297,171.742050 
	C330.234924,175.472961 328.506012,176.403030 324.825836,176.075943 
z"/>
<path fill="#15395E" opacity="1.000000" stroke="none" 
	d="
M253.688461,138.167877 
	C246.731293,138.192535 240.238510,138.061081 233.755310,138.253220 
	C230.260284,138.356812 229.083908,137.008667 229.132690,133.586670 
	C229.277313,123.439552 229.241867,113.288559 229.150497,103.140213 
	C229.124512,100.252869 230.005585,98.880875 233.139206,98.954041 
	C239.790771,99.109337 246.449783,99.079559 253.103027,98.966217 
	C255.911102,98.918388 256.928284,100.063370 256.908051,102.805183 
	C256.830780,113.286537 256.971558,123.770752 256.755585,134.248230 
	C256.728455,135.564941 255.063126,136.847916 253.688461,138.167877 
z"/>
<path fill="#355389" opacity="1.000000" stroke="none" 
	d="
M467.258240,382.797913 
	C466.821747,382.712708 466.912964,382.311920 466.954590,382.110138 
	C467.277618,380.612793 468.131256,379.105316 467.743317,378.057587 
	C465.858673,372.968048 463.620697,368.010223 461.548035,362.989197 
	C459.621429,358.321991 458.422028,353.593079 460.836853,348.323120 
	C468.454163,358.044281 469.282501,370.084595 471.161987,382.235657 
	C470.052429,382.720642 468.873596,382.801910 467.258240,382.797913 
z"/>
<path fill="#AB6051" opacity="1.000000" stroke="none" 
	d="
M263.759247,224.090759 
	C264.006409,236.165787 264.045074,248.156052 263.963257,260.145477 
	C263.947510,262.447510 263.458496,264.746307 263.106079,267.445221 
	C263.024384,267.843842 262.537079,267.905334 262.094849,267.600830 
	C258.661987,261.221954 255.671371,255.147644 253.026276,248.858734 
	C253.913574,246.815979 254.861435,245.001419 254.923370,243.157120 
	C255.135605,236.837494 255.037033,230.507431 255.056976,224.181351 
	C255.056976,224.181351 255.009460,224.013397 254.983826,223.929810 
	C257.344788,223.881348 259.731415,223.916473 262.561676,223.897400 
	C263.173187,223.897369 263.341003,223.951538 263.759247,224.090759 
z"/>
<path fill="#36548A" opacity="1.000000" stroke="none" 
	d="
M206.478790,260.881104 
	C204.065369,254.470093 202.113098,248.096237 200.566589,241.348373 
	C202.134415,240.973267 203.296509,240.975021 204.458572,240.970612 
	C211.033676,240.945740 211.059677,240.945206 211.051544,234.343796 
	C211.025970,213.593414 210.979034,192.843079 210.940384,172.092712 
	C211.490433,172.126312 212.040482,172.159912 212.997498,172.278534 
	C214.782593,174.510727 216.160706,176.657883 217.822128,179.017715 
	C216.059875,185.998306 217.668762,191.795349 222.907257,197.001007 
	C223.499313,198.169525 223.923462,199.009735 224.687164,200.313538 
	C226.995758,206.565048 228.964828,212.352966 230.958405,218.515594 
	C231.968002,221.945572 232.953079,225.000839 234.011383,228.426102 
	C235.079712,231.854141 236.074814,234.912201 237.069916,237.970261 
	C238.515335,242.508041 239.960739,247.045837 241.666992,252.247070 
	C243.301163,257.901062 244.674469,262.891602 246.047760,267.882141 
	C243.986847,267.939117 241.925919,267.996124 239.425385,268.007385 
	C239.228561,262.575684 235.826294,261.065399 231.337051,261.004059 
	C223.205795,260.892944 215.072418,260.938263 206.478790,260.881104 
z"/>
<path fill="#AE6A5C" opacity="1.000000" stroke="none" 
	d="
M254.618195,224.128357 
	C255.037033,230.507431 255.135605,236.837494 254.923370,243.157120 
	C254.861435,245.001419 253.913574,246.815979 252.827179,248.633392 
	C251.587326,247.385574 250.892059,246.148529 250.121307,244.555527 
	C248.435043,241.081436 246.824310,237.963318 245.213562,234.845184 
	C245.871231,231.376526 240.905334,228.224350 244.844604,224.300323 
	C245.795532,223.995087 246.537888,223.972260 247.649200,223.898987 
	C250.071930,223.924149 252.125671,223.999756 254.618195,224.128357 
z"/>
<path fill="#6E80A2" opacity="1.000000" stroke="none" 
	d="
M237.418671,237.810455 
	C236.074814,234.912201 235.079712,231.854141 234.250763,228.079865 
	C234.620728,215.940063 234.824554,204.516464 235.063416,192.969299 
	C235.098434,192.845703 235.136612,192.591614 235.459503,192.458328 
	C236.828415,191.823563 237.874420,191.322098 238.920425,190.820618 
	C238.946991,204.906509 239.011398,218.992599 238.945679,233.078064 
	C238.938568,234.604065 238.178329,236.126541 237.418671,237.810455 
z"/>
<path fill="#5B6F94" opacity="1.000000" stroke="none" 
	d="
M244.948914,235.187851 
	C246.824310,237.963318 248.435043,241.081436 249.745117,244.719528 
	C248.963547,246.877472 248.116272,248.504669 248.067657,250.155380 
	C247.893646,256.062347 247.990311,261.977295 247.984589,267.889221 
	C247.553177,267.920013 247.121750,267.950775 246.369049,267.931854 
	C244.674469,262.891602 243.301163,257.901062 241.893768,252.522217 
	C242.571930,250.054443 243.606537,248.022690 243.922684,245.884705 
	C244.427551,242.470413 244.454956,238.985550 244.948914,235.187851 
z"/>
<path fill="#C8CEED" opacity="1.000000" stroke="none" 
	d="
M239.032990,190.480835 
	C237.874420,191.322098 236.828415,191.823563 235.071930,192.324951 
	C233.288849,192.213730 232.216217,192.102600 231.143616,191.991470 
	C233.214737,188.755264 235.285873,185.519043 237.677155,182.187698 
	C238.380066,184.775391 238.762817,187.458237 239.032990,190.480835 
z"/>
<path fill="#8392B1" opacity="1.000000" stroke="none" 
	d="
M230.814331,192.091827 
	C232.216217,192.102600 233.288849,192.213730 234.749039,192.458237 
	C235.136612,192.591614 235.098434,192.845703 234.703278,193.065933 
	C233.539505,195.493454 232.318588,197.654968 232.089645,199.916885 
	C231.477097,205.968552 231.290009,212.063278 230.933884,218.140900 
	C228.964828,212.352966 226.995758,206.565048 224.986176,200.392914 
	C226.792099,197.403229 228.638565,194.797729 230.814331,192.091827 
z"/>
<path fill="#456DB4" opacity="1.000000" stroke="none" 
	d="
M210.564072,172.070633 
	C210.979034,192.843079 211.025970,213.593414 211.051544,234.343796 
	C211.059677,240.945206 211.033676,240.945740 204.458572,240.970612 
	C203.296509,240.975021 202.134415,240.973267 200.517334,240.978180 
	C199.058487,238.210068 198.054642,235.438110 197.435791,232.265259 
	C201.917969,232.448334 203.251999,230.695084 203.170227,226.592712 
	C202.910538,213.563522 202.991714,200.527527 202.963928,187.121460 
	C203.344437,184.982666 203.937714,183.223862 203.992477,181.448456 
	C204.045425,179.731720 203.543716,177.997894 203.285645,176.271576 
	C205.586334,174.863907 207.887054,173.456238 210.564072,172.070633 
z"/>
<path fill="#A45043" opacity="1.000000" stroke="none" 
	d="
M202.992615,176.245850 
	C203.543716,177.997894 204.045425,179.731720 203.992477,181.448456 
	C203.937714,183.223862 203.344437,184.982666 202.696472,187.428513 
	C199.607727,198.077515 196.809204,208.046738 193.747681,218.014435 
	C192.988022,217.861877 192.491364,217.710861 192.101868,217.166550 
	C195.635544,204.298843 199.261154,191.868546 200.868835,178.948517 
	C198.732330,182.385117 197.681458,186.103378 196.746338,189.850540 
	C194.464325,198.994720 192.235901,208.152283 189.741867,217.470383 
	C188.723328,217.784225 187.948837,217.932159 187.174347,218.080078 
	C190.565796,204.759583 193.910995,191.426758 197.445786,178.144409 
	C197.699646,177.190430 199.338776,176.605072 200.644958,175.836945 
	C201.537292,175.957092 202.118439,176.088608 202.992615,176.245850 
z"/>
<path fill="#355389" opacity="1.000000" stroke="none" 
	d="
M191.990677,276.454376 
	C240.996582,275.972137 290.007935,275.959961 339.479858,276.000702 
	C339.867950,280.508667 339.795532,284.963684 339.282532,289.900909 
	C325.057617,293.392151 311.121185,295.847839 297.535309,299.579620 
	C285.979706,302.753754 283.685577,311.346405 290.669250,321.395203 
	C290.342285,322.813477 290.110626,323.843262 289.878998,324.873047 
	C258.947479,324.902679 228.015701,324.878571 197.084763,325.028870 
	C193.147476,325.047974 191.890701,323.714569 191.936859,319.829376 
	C192.106735,305.529510 191.999268,291.226349 191.990677,276.454376 
z"/>
<path fill="#365389" opacity="1.000000" stroke="none" 
	d="
M263.575012,412.842468 
	C263.066071,412.635071 263.016266,412.437164 262.930023,411.935425 
	C262.751892,409.110260 262.610168,406.588898 262.285828,403.439850 
	C263.099030,399.966736 264.094879,397.121307 265.413696,394.158478 
	C277.279907,380.070160 288.887054,366.150970 300.288300,352.065125 
	C301.773376,350.230316 302.198486,347.537567 303.452454,345.192017 
	C304.576538,345.679688 305.538177,346.071930 306.122986,346.776825 
	C317.423553,360.398132 328.680054,374.056000 339.945618,387.706360 
	C339.907227,395.717224 339.868866,403.728088 339.782410,412.168640 
	C314.500977,412.682892 289.267548,412.767395 263.575012,412.842468 
z"/>
<path fill="#B65745" opacity="1.000000" stroke="none" 
	d="
M303.114563,345.242188 
	C302.198486,347.537567 301.773376,350.230316 300.288300,352.065125 
	C288.887054,366.150970 277.279907,380.070160 265.125641,393.954620 
	C262.013397,392.282043 259.512207,390.695923 257.011017,389.109772 
	C257.403381,387.440369 257.475220,385.605988 258.236847,384.126740 
	C267.424591,366.282349 276.714203,348.490417 286.076172,330.333771 
	C293.187744,329.847839 300.200378,329.712982 307.628601,330.054443 
	C306.400940,335.434540 304.757751,340.338379 303.114563,345.242188 
z"/>
<path fill="#B65644" opacity="1.000000" stroke="none" 
	d="
M290.362854,324.876251 
	C290.110626,323.843262 290.342285,322.813477 290.907135,321.226166 
	C294.235046,316.817993 296.449829,311.090607 300.368103,309.462311 
	C313.030640,304.200073 326.319458,300.444916 339.366943,296.109009 
	C339.446136,304.080902 339.525360,312.052765 339.136353,320.489380 
	C334.959991,320.997528 330.718750,319.656708 328.936737,324.701752 
	C316.240082,324.760986 303.543396,324.820221 290.362854,324.876251 
z"/>
<path fill="#9F4B3F" opacity="1.000000" stroke="none" 
	d="
M303.452454,345.192017 
	C304.757751,340.338379 306.400940,335.434540 308.065796,330.108276 
	C310.750702,329.556610 313.413910,329.427399 316.688904,329.556366 
	C324.757599,342.649109 332.214539,355.483704 339.671509,368.318268 
	C339.761658,374.486145 339.851807,380.654022 339.943787,387.264130 
	C328.680054,374.056000 317.423553,360.398132 306.122986,346.776825 
	C305.538177,346.071930 304.576538,345.679688 303.452454,345.192017 
z"/>
<path fill="#9F4B3F" opacity="1.000000" stroke="none" 
	d="
M339.481079,295.707733 
	C326.319458,300.444916 313.030640,304.200073 300.368103,309.462311 
	C296.449829,311.090607 294.235046,316.817993 291.002441,320.837646 
	C283.685577,311.346405 285.979706,302.753754 297.535309,299.579620 
	C311.121185,295.847839 325.057617,293.392151 339.205566,290.383942 
	C339.577820,292.025360 339.586517,293.665894 339.481079,295.707733 
z"/>
<path fill="#355286" opacity="1.000000" stroke="none" 
	d="
M339.741150,367.828064 
	C332.214539,355.483704 324.757599,342.649109 317.107788,329.563232 
	C320.693298,329.269318 324.471680,329.226685 328.667389,329.601013 
	C330.295959,334.721466 332.926819,336.159576 339.673523,335.806091 
	C339.719269,346.316681 339.765015,356.827301 339.741150,367.828064 
z"/>
<path fill="#EF8C80" opacity="1.000000" stroke="none" 
	d="
M344.152466,378.716400 
	C346.635742,381.104187 349.082520,383.942963 351.784027,387.016846 
	C349.590820,393.032990 347.142914,398.814056 344.468872,404.857178 
	C344.200470,396.468628 344.158234,387.817993 344.152466,378.716400 
z"/>
<path fill="#456DB4" opacity="1.000000" stroke="none" 
	d="
M339.714874,335.402893 
	C332.926819,336.159576 330.295959,334.721466 329.137024,329.666382 
	C331.157227,329.360413 333.128632,329.501923 335.092407,329.431427 
	C339.100555,329.287659 340.305267,331.382477 339.714874,335.402893 
z"/>
<path fill="#446BB1" opacity="1.000000" stroke="none" 
	d="
M329.391235,324.772247 
	C330.718750,319.656708 334.959991,320.997528 339.060852,320.947449 
	C340.240570,323.730347 339.192230,325.032990 336.290802,324.932129 
	C334.144012,324.857513 331.994232,324.869385 329.391235,324.772247 
z"/>
<path fill="#51668E" opacity="1.000000" stroke="none" 
	d="
M248.446671,267.956329 
	C247.990311,261.977295 247.893646,256.062347 248.067657,250.155380 
	C248.116272,248.504669 248.963547,246.877472 249.820618,245.075485 
	C250.892059,246.148529 251.587326,247.385574 252.481674,248.847961 
	C255.671371,255.147644 258.661987,261.221954 261.852173,267.563110 
	C257.670746,267.894440 253.289749,267.958954 248.446671,267.956329 
z"/>
<path fill="#173A61" opacity="1.000000" stroke="none" 
	d="
M123.149841,295.274963 
	C123.027802,295.199829 123.500610,295.083496 123.743164,295.066772 
	C123.813995,295.328613 123.576050,295.428619 123.149841,295.274963 
z"/>
<path fill="#3860B0" opacity="1.000000" stroke="none" 
	d="
M133.016190,284.063293 
	C132.875610,280.729279 134.531097,279.969360 137.089264,279.989594 
	C144.375229,280.047333 151.663651,280.102661 158.947647,279.969482 
	C162.430527,279.905823 163.042419,281.748779 163.027405,284.663666 
	C163.013046,287.454102 162.223785,289.039490 159.092941,288.999603 
	C151.807724,288.906677 144.518799,288.880798 137.234787,289.014130 
	C133.925247,289.074646 132.727280,287.590424 133.016190,284.063293 
z"/>
<path fill="#3E5684" opacity="1.000000" stroke="none" 
	d="
M201.264755,260.834137 
	C198.865921,254.472656 196.875656,248.151718 195.209610,241.423218 
	C196.014221,240.990570 196.494644,240.965485 196.975052,240.940384 
	C199.294052,247.328247 201.613068,253.716110 204.031723,260.447632 
	C203.312012,260.819092 202.492676,260.846893 201.264755,260.834137 
z"/>
<path fill="#051635" opacity="1.000000" stroke="none" 
	d="
M194.010681,218.015961 
	C196.809204,208.046738 199.607727,198.077515 202.673706,187.801239 
	C202.991714,200.527527 202.910538,213.563522 203.170227,226.592712 
	C203.251999,230.695084 201.917969,232.448334 197.389862,231.892212 
	C196.286240,230.435196 195.613571,228.950333 194.814758,226.742935 
	C194.462631,223.352264 194.236649,220.684113 194.010681,218.015961 
z"/>
<path fill="#F17258" opacity="1.000000" stroke="none" 
	d="
M193.747681,218.014435 
	C194.236649,220.684113 194.462631,223.352264 194.629883,226.439728 
	C192.533340,227.277145 190.495544,227.695236 188.137772,228.123199 
	C185.286255,225.225418 183.382278,222.248764 186.976700,218.384583 
	C187.948837,217.932159 188.723328,217.784225 190.076050,217.525482 
	C191.101089,217.463074 191.547897,217.511459 191.994720,217.559845 
	C192.491364,217.710861 192.988022,217.861877 193.747681,218.014435 
z"/>
<path fill="#446BB1" opacity="1.000000" stroke="none" 
	d="
M196.944214,240.572647 
	C196.494644,240.965485 196.014221,240.990570 195.172485,241.036560 
	C193.656021,237.762131 192.500885,234.466812 191.345734,231.171509 
	C192.064621,230.913879 192.783524,230.656250 193.502411,230.398621 
	C194.639389,233.667389 195.776382,236.936142 196.944214,240.572647 
z"/>
<path fill="#2B3B5C" opacity="1.000000" stroke="none" 
	d="
M159.683472,93.025848 
	C154.361435,87.636139 153.511368,80.120903 157.543610,74.107674 
	C161.837540,67.704140 169.829620,65.164528 176.694565,68.100693 
	C178.047012,68.679138 179.268021,69.564850 180.778748,70.994568 
	C181.066483,72.340981 181.068954,73.012360 181.192123,73.660812 
	C183.438400,85.488098 177.125320,93.136948 165.162186,93.064949 
	C163.335938,93.053955 161.509705,93.038979 159.683472,93.025848 
z"/>
<path fill="#495877" opacity="1.000000" stroke="none" 
	d="
M159.877838,93.332092 
	C161.509705,93.038979 163.335938,93.053955 165.162186,93.064949 
	C177.125320,93.136948 183.438400,85.488098 181.192123,73.660812 
	C181.068954,73.012360 181.066483,72.340981 181.010880,71.248581 
	C187.398331,77.451088 187.823044,87.027252 182.007172,93.211296 
	C176.175812,99.411774 167.323914,99.584122 159.877838,93.332092 
z"/>
<path fill="#F3A291" opacity="1.000000" stroke="none" 
	d="
M256.869690,389.413727 
	C259.512207,390.695923 262.013397,392.282043 264.802643,394.072021 
	C264.094879,397.121307 263.099030,399.966736 262.065216,403.143066 
	C257.361176,403.644867 252.695129,403.815674 247.647461,403.892456 
	C250.420044,399.104797 253.574234,394.411224 256.869690,389.413727 
z"/>
<path fill="#7889AA" opacity="1.000000" stroke="none" 
	d="
M230.958405,218.515594 
	C231.290009,212.063278 231.477097,205.968552 232.089645,199.916885 
	C232.318588,197.654968 233.539505,195.493454 234.668243,193.189514 
	C234.824554,204.516464 234.620728,215.940063 234.177536,227.709885 
	C232.953079,225.000839 231.968002,221.945572 230.958405,218.515594 
z"/>
<path fill="#0A1734" opacity="1.000000" stroke="none" 
	d="
M192.101868,217.166534 
	C191.547897,217.511459 191.101089,217.463074 190.320099,217.359558 
	C192.235901,208.152283 194.464325,198.994720 196.746338,189.850540 
	C197.681458,186.103378 198.732330,182.385117 200.868835,178.948517 
	C199.261154,191.868546 195.635544,204.298843 192.101868,217.166534 
z"/>
</svg>